<svg width="1440" height="630" viewBox="0 0 1440 630" fill="none" xmlns="http://www.w3.org/2000/svg">
<rect width="1440" height="630" fill="#E3FFE6"/>
<g clip-path="url(#clip0_24_5)">
<path d="M1203.5 135C1210.4 135 1216 129.404 1216 122.5C1216 115.596 1210.4 110 1203.5 110C1196.6 110 1191 115.596 1191 122.5C1191 129.404 1196.6 135 1203.5 135Z" fill="#43B97F"/>
<path d="M302.5 542C308.299 542 313 537.299 313 531.5C313 525.701 308.299 521 302.5 521C296.701 521 292 525.701 292 531.5C292 537.299 296.701 542 302.5 542Z" fill="#43B97F"/>
<path d="M124.5 510C130.299 510 135 505.299 135 499.5C135 493.701 130.299 489 124.5 489C118.701 489 114 493.701 114 499.5C114 505.299 118.701 510 124.5 510Z" fill="#FF6650"/>
<path d="M1351.5 520C1357.3 520 1362 515.299 1362 509.5C1362 503.701 1357.3 499 1351.5 499C1345.7 499 1341 503.701 1341 509.5C1341 515.299 1345.7 520 1351.5 520Z" fill="#FFB951"/>
<path d="M674.5 126C684.165 126 692 118.165 692 108.5C692 98.835 684.165 91 674.5 91C664.835 91 657 98.835 657 108.5C657 118.165 664.835 126 674.5 126Z" fill="#C280D2"/>
</g>
<defs>
<clipPath id="clip0_24_5">
<rect width="1440" height="630" fill="white"/>
</clipPath>
</defs>
</svg>
